<svg width="24" height="24" viewBox="0 0 24 24" fill="none" xmlns="http://www.w3.org/2000/svg">
<mask id="mask0_545_470" style="mask-type:alpha" maskUnits="userSpaceOnUse" x="0" y="0" width="24" height="24">
<rect width="24" height="24" fill="#D9D9D9"/>
</mask>
<g mask="url(#mask0_545_470)">
<path d="M12.0038 11.7308C12.449 11.7308 12.829 11.5723 13.1437 11.2552C13.4585 10.9382 13.6158 10.5571 13.6158 10.112C13.6158 9.66681 13.4573 9.28686 13.1403 8.97213C12.8233 8.65738 12.4422 8.5 11.997 8.5C11.5519 8.5 11.1719 8.65851 10.8572 8.97552C10.5424 9.29252 10.3851 9.67362 10.3851 10.1188C10.3851 10.564 10.5436 10.9439 10.8606 11.2587C11.1776 11.5734 11.5587 11.7308 12.0038 11.7308ZM12.0004 19.6769C13.8799 18.041 15.3658 16.3772 16.4581 14.6856C17.5504 12.9939 18.0966 11.5308 18.0966 10.2962C18.0966 8.46667 17.5174 6.95673 16.3591 5.76635C15.2008 4.57597 13.7479 3.98078 12.0004 3.98078C10.253 3.98078 8.80013 4.57597 7.6418 5.76635C6.48346 6.95673 5.9043 8.46667 5.9043 10.2962C5.9043 11.5308 6.45045 12.9939 7.54275 14.6856C8.63506 16.3772 10.121 18.041 12.0004 19.6769ZM12.0004 21.0192C9.65045 18.941 7.88025 17.0029 6.68987 15.2048C5.49949 13.4067 4.9043 11.7705 4.9043 10.2962C4.9043 8.18077 5.59308 6.43589 6.97065 5.06153C8.3482 3.68718 10.0248 3 12.0004 3C13.9761 3 15.6527 3.68718 17.0302 5.06153C18.4078 6.43589 19.0966 8.18077 19.0966 10.2962C19.0966 11.7705 18.5014 13.4067 17.311 15.2048C16.1206 17.0029 14.3504 18.941 12.0004 21.0192Z" fill="#3D3D3B"/>
</g>
</svg>
