<svg width="20" height="20" viewBox="0 0 20 20" fill="none" xmlns="http://www.w3.org/2000/svg">
<mask id="mask0_545_447" style="mask-type:alpha" maskUnits="userSpaceOnUse" x="0" y="0" width="20" height="20">
<rect width="20" height="20" fill="#D9D9D9"/>
</mask>
<g mask="url(#mask0_545_447)">
<path d="M4.67915 17.4999C4.29561 17.4999 3.97537 17.3715 3.71842 17.1145C3.46148 16.8576 3.33301 16.5373 3.33301 16.1538V5.51274C3.33301 5.1292 3.46148 4.80896 3.71842 4.55201C3.97537 4.29507 4.29561 4.1666 4.67915 4.1666H6.15351V2.30762H7.05095V4.1666H13.0125V2.30762H13.8458V4.1666H15.3202C15.7037 4.1666 16.024 4.29507 16.2809 4.55201C16.5379 4.80896 16.6663 5.1292 16.6663 5.51274V16.1538C16.6663 16.5373 16.5379 16.8576 16.2809 17.1145C16.024 17.3715 15.7037 17.4999 15.3202 17.4999H4.67915ZM4.67915 16.6666H15.3202C15.4484 16.6666 15.5659 16.6132 15.6728 16.5063C15.7796 16.3995 15.833 16.282 15.833 16.1538V8.84608H4.16634V16.1538C4.16634 16.282 4.21976 16.3995 4.32659 16.5063C4.43344 16.6132 4.55096 16.6666 4.67915 16.6666ZM4.16634 8.01274H15.833V5.51274C15.833 5.38455 15.7796 5.26703 15.6728 5.16018C15.5659 5.05335 15.4484 4.99993 15.3202 4.99993H4.67915C4.55096 4.99993 4.43344 5.05335 4.32659 5.16018C4.21976 5.26703 4.16634 5.38455 4.16634 5.51274V8.01274ZM9.99967 11.7948C9.82766 11.7948 9.67782 11.731 9.55015 11.6033C9.42249 11.4756 9.35865 11.3258 9.35865 11.1538C9.35865 10.9818 9.42249 10.8319 9.55015 10.7043C9.67782 10.5766 9.82766 10.5127 9.99967 10.5127C10.1717 10.5127 10.3215 10.5766 10.4492 10.7043C10.5769 10.8319 10.6407 10.9818 10.6407 11.1538C10.6407 11.3258 10.5769 11.4756 10.4492 11.6033C10.3215 11.731 10.1717 11.7948 9.99967 11.7948ZM6.66634 11.7948C6.49433 11.7948 6.34449 11.731 6.21682 11.6033C6.08915 11.4756 6.02532 11.3258 6.02532 11.1538C6.02532 10.9818 6.08915 10.8319 6.21682 10.7043C6.34449 10.5766 6.49433 10.5127 6.66634 10.5127C6.83835 10.5127 6.9882 10.5766 7.11586 10.7043C7.24353 10.8319 7.30736 10.9818 7.30736 11.1538C7.30736 11.3258 7.24353 11.4756 7.11586 11.6033C6.9882 11.731 6.83835 11.7948 6.66634 11.7948ZM13.333 11.7948C13.161 11.7948 13.0112 11.731 12.8835 11.6033C12.7558 11.4756 12.692 11.3258 12.692 11.1538C12.692 10.9818 12.7558 10.8319 12.8835 10.7043C13.0112 10.5766 13.161 10.5127 13.333 10.5127C13.505 10.5127 13.6549 10.5766 13.7825 10.7043C13.9102 10.8319 13.974 10.9818 13.974 11.1538C13.974 11.3258 13.9102 11.4756 13.7825 11.6033C13.6549 11.731 13.505 11.7948 13.333 11.7948ZM9.99967 14.9999C9.82766 14.9999 9.67782 14.9361 9.55015 14.8084C9.42249 14.6807 9.35865 14.5309 9.35865 14.3589C9.35865 14.1869 9.42249 14.0371 9.55015 13.9094C9.67782 13.7817 9.82766 13.7179 9.99967 13.7179C10.1717 13.7179 10.3215 13.7817 10.4492 13.9094C10.5769 14.0371 10.6407 14.1869 10.6407 14.3589C10.6407 14.5309 10.5769 14.6807 10.4492 14.8084C10.3215 14.9361 10.1717 14.9999 9.99967 14.9999ZM6.66634 14.9999C6.49433 14.9999 6.34449 14.9361 6.21682 14.8084C6.08915 14.6807 6.02532 14.5309 6.02532 14.3589C6.02532 14.1869 6.08915 14.0371 6.21682 13.9094C6.34449 13.7817 6.49433 13.7179 6.66634 13.7179C6.83835 13.7179 6.9882 13.7817 7.11586 13.9094C7.24353 14.0371 7.30736 14.1869 7.30736 14.3589C7.30736 14.5309 7.24353 14.6807 7.11586 14.8084C6.9882 14.9361 6.83835 14.9999 6.66634 14.9999ZM13.333 14.9999C13.161 14.9999 13.0112 14.9361 12.8835 14.8084C12.7558 14.6807 12.692 14.5309 12.692 14.3589C12.692 14.1869 12.7558 14.0371 12.8835 13.9094C13.0112 13.7817 13.161 13.7179 13.333 13.7179C13.505 13.7179 13.6549 13.7817 13.7825 13.9094C13.9102 14.0371 13.974 14.1869 13.974 14.3589C13.974 14.5309 13.9102 14.6807 13.7825 14.8084C13.6549 14.9361 13.505 14.9999 13.333 14.9999Z" fill="#3D3D3B"/>
</g>
</svg>
