<svg width="182" height="61" viewBox="0 0 182 61" fill="none" xmlns="http://www.w3.org/2000/svg">
<path d="M141.305 55.0001V51.9061H144.159V36.9541H141.305V33.8601H147.685V51.9061H150.525V55.0001H141.305ZM147.069 45.7881V42.9041H152.526C153.823 42.9041 154.811 42.6614 155.492 42.1761C156.183 41.6814 156.528 40.9441 156.528 39.9641C156.528 38.9094 156.159 38.1441 155.422 37.6681C154.685 37.1921 153.706 36.9541 152.484 36.9541H146.859V33.8601H152.624C155.124 33.8601 156.999 34.3781 158.249 35.4141C159.508 36.4408 160.138 37.8781 160.138 39.7261C160.138 40.4168 160.026 41.1168 159.802 41.8261C159.578 42.5354 159.181 43.1934 158.612 43.8001C158.053 44.3974 157.269 44.8781 156.262 45.2421C155.264 45.6061 153.991 45.7881 152.442 45.7881H147.069Z" fill="#F7F3D9"/>
<path d="M123.147 55.0001L116.823 35.9181L119.803 33.8601L125.484 51.3601L124.574 51.3181L130.367 33.8601L132.816 35.9181L126.463 55.0001H123.147ZM110.807 55.0001V51.9061H113.647V36.9541H110.807V33.8601H119.677L118.572 36.9541H116.949V51.9061H119.901V55.0001H110.807ZM129.625 55.0001V51.9061H132.676V36.9541H130.871L130.367 33.8601H139.056V36.9541H136.202V51.9061H139.056V55.0001H129.625Z" fill="#F7F3D9"/>
<path d="M104.398 45.5221V48.3921H92.9666V45.5221H104.398ZM107.938 51.9061H109.715V55.0001H100.424V51.9061H104.174L98.0596 36.0301L99.9625 37.7101H97.2201L99.053 36.0301L92.9386 51.9061H96.7444V55.0001H87.6777V51.9061H89.4687L96.6184 33.8601H100.802L107.938 51.9061Z" fill="#F7F3D9"/>
<path d="M76.8833 55.3501C75.3069 55.3501 73.8564 55.0794 72.5319 54.5381C71.2167 53.9968 70.0787 53.2361 69.1179 52.2561C68.1665 51.2761 67.4249 50.1188 66.8932 48.7841C66.3615 47.4401 66.0957 45.9701 66.0957 44.3741C66.0957 42.7781 66.3569 41.3221 66.8792 40.0061C67.4016 38.6808 68.1292 37.5374 69.0619 36.5761C70.0041 35.6054 71.1094 34.8588 72.378 34.3361C73.6559 33.8041 75.0411 33.5381 76.5335 33.5381C77.9327 33.5381 79.1313 33.7761 80.1294 34.2521C81.1275 34.7281 81.9203 35.4281 82.508 36.3521C83.105 37.2668 83.4967 38.3821 83.6833 39.6981H84.6207L83.8092 42.2321C83.4268 40.6268 82.6153 39.3481 81.3747 38.3961C80.1434 37.4348 78.6509 36.9541 76.8973 36.9541C75.5075 36.9541 74.2809 37.2668 73.2175 37.8921C72.1541 38.5174 71.3239 39.3901 70.727 40.5101C70.13 41.6208 69.8315 42.9088 69.8315 44.3741C69.8315 45.4848 69.9994 46.5021 70.3352 47.4261C70.6803 48.3501 71.1654 49.1481 71.7903 49.8201C72.4153 50.4921 73.1569 51.0148 74.015 51.3881C74.8825 51.7521 75.8386 51.9341 76.8833 51.9341C78.0586 51.9341 79.1173 51.7054 80.0594 51.2481C81.0109 50.7814 81.7991 50.1328 82.424 49.3021C83.0583 48.4621 83.4921 47.4774 83.7253 46.3481L87.3491 47.0341C87.0133 48.7048 86.365 50.1654 85.4043 51.4161C84.4435 52.6574 83.2356 53.6234 81.7804 54.3141C80.3346 55.0048 78.7022 55.3501 76.8833 55.3501ZM83.8092 42.2321V33.8601H87.3351V42.2321H83.8092Z" fill="#F7F3D9"/>
<path d="M163.168 27.0001V23.9061H166.022V8.95411H163.168V5.86011H169.548V23.9061H172.389V27.0001H163.168ZM168.933 17.7881V14.9041H174.389C175.686 14.9041 176.675 14.6614 177.356 14.1761C178.046 13.6814 178.391 12.9441 178.391 11.9641C178.391 10.9094 178.023 10.1441 177.286 9.66811C176.549 9.19211 175.569 8.95411 174.347 8.95411H168.723V5.86011H174.487C176.987 5.86011 178.862 6.37811 180.112 7.41411C181.371 8.44078 182.001 9.87811 182.001 11.7261C182.001 12.4168 181.889 13.1168 181.665 13.8261C181.441 14.5354 181.045 15.1934 180.476 15.8001C179.916 16.3974 179.133 16.8781 178.125 17.2421C177.127 17.6061 175.854 17.7881 174.305 17.7881H168.933Z" fill="#F7F3D9"/>
<path d="M145.011 27.0001L138.686 7.91811L141.667 5.86011L147.347 23.3601L146.438 23.3181L152.23 5.86011L154.679 7.91811L148.327 27.0001H145.011ZM132.67 27.0001V23.9061H135.51V8.95411H132.67V5.86011H141.541L140.435 8.95411H138.812V23.9061H141.765V27.0001H132.67ZM151.489 27.0001V23.9061H154.539V8.95411H152.734L152.23 5.86011H160.919V8.95411H158.065V23.9061H160.919V27.0001H151.489Z" fill="#F7F3D9"/>
<path d="M126.261 17.5221V20.3921H114.83V17.5221H126.261ZM129.801 23.9061H131.578V27.0001H122.287V23.9061H126.037L119.923 8.03011L121.826 9.71011H119.083L120.916 8.03011L114.802 23.9061H118.608V27.0001H109.541V23.9061H111.332L118.482 5.86011H122.665L129.801 23.9061Z" fill="#F7F3D9"/>
<path d="M90.8574 8.95411V5.86011H100.204V8.95411H97.2376V23.9061H106.444V27.0001H90.8574V23.9061H93.7117V8.95411H90.8574ZM108.641 19.4541V27.0001H105.115V19.4541H108.641Z" fill="#F7F3D9"/>
<path d="M76.7294 27.3221C75.1903 27.3221 73.7678 27.0561 72.4619 26.5241C71.1654 25.9828 70.0414 25.2221 69.0899 24.2421C68.1478 23.2528 67.4109 22.0908 66.8792 20.7561C66.3569 19.4214 66.0957 17.9608 66.0957 16.3741C66.0957 14.7781 66.3569 13.3221 66.8792 12.0061C67.4016 10.6808 68.1338 9.53742 69.0759 8.57609C70.018 7.60542 71.1234 6.85875 72.392 6.33609C73.6606 5.80409 75.0457 5.53809 76.5475 5.53809C77.928 5.53809 79.1127 5.77609 80.1014 6.25209C81.0995 6.71875 81.8923 7.40942 82.48 8.32409C83.077 9.23875 83.4687 10.3494 83.6553 11.6561H84.6067L83.7952 14.1761C83.4128 12.5894 82.6059 11.3248 81.3747 10.3821C80.1434 9.43009 78.6556 8.95409 76.9113 8.95409C75.5215 8.95409 74.2948 9.26675 73.2315 9.89209C72.1681 10.5174 71.3333 11.3901 70.727 12.5101C70.13 13.6208 69.8315 14.9088 69.8315 16.3741C69.8315 17.4848 69.9994 18.5021 70.3352 19.4261C70.6803 20.3501 71.1654 21.1481 71.7903 21.8201C72.4246 22.4921 73.1755 23.0148 74.043 23.3881C74.9198 23.7521 75.8852 23.9341 76.9393 23.9341C78.1519 23.9341 79.2479 23.7101 80.2273 23.2621C81.2161 22.8048 82.0463 22.1701 82.7179 21.3581C83.3988 20.5368 83.8792 19.5754 84.159 18.4741L86.4816 19.0341C86.1552 20.7421 85.5488 22.2168 84.6627 23.4581C83.7766 24.6994 82.6572 25.6561 81.3047 26.3281C79.9615 26.9908 78.4364 27.3221 76.7294 27.3221ZM85.2783 27.0001L83.9072 23.2761V16.6961H87.4331V27.0001H85.2783ZM78.5203 19.2161V16.3321H90.2594V19.2161H78.5203ZM83.7952 14.1761V5.86009H87.3211V14.1761H83.7952Z" fill="#F7F3D9"/>
<mask id="mask0_812_475" style="mask-type:alpha" maskUnits="userSpaceOnUse" x="0" y="0" width="56" height="61">
<rect width="55.9668" height="61" fill="#D9D9D9"/>
</mask>
<g mask="url(#mask0_812_475)">
<path d="M11.5147 44.4791L30.5659 35.5833L39.4565 16.5208L20.4053 25.4166L11.5147 44.4791ZM25.4856 33.0416C24.7659 33.0416 24.1626 32.798 23.6757 32.3109C23.1889 31.8237 22.9454 31.2201 22.9454 30.4999C22.9454 29.7798 23.1889 29.1761 23.6757 28.689C24.1626 28.2018 24.7659 27.9583 25.4856 27.9583C26.2053 27.9583 26.8086 28.2018 27.2955 28.689C27.7823 29.1761 28.0258 29.7798 28.0258 30.4999C28.0258 31.2201 27.7823 31.8237 27.2955 32.3109C26.8086 32.798 26.2053 33.0416 25.4856 33.0416ZM25.4856 55.9166C21.9717 55.9166 18.6695 55.2494 15.579 53.915C12.4884 52.5806 9.8001 50.7697 7.51396 48.4822C5.22781 46.1947 3.41795 43.5048 2.08436 40.4124C0.750777 37.3201 0.0839844 34.0159 0.0839844 30.4999C0.0839844 26.9839 0.750777 23.6798 2.08436 20.5874C3.41795 17.4951 5.22781 14.8051 7.51396 12.5176C9.8001 10.2301 12.4884 8.41919 15.579 7.08481C18.6695 5.75044 21.9717 5.08325 25.4856 5.08325C28.9995 5.08325 32.3017 5.75044 35.3922 7.08481C38.4828 8.41919 41.1711 10.2301 43.4572 12.5176C45.7434 14.8051 47.5533 17.4951 48.8868 20.5874C50.2204 23.6798 50.8872 26.9839 50.8872 30.4999C50.8872 34.0159 50.2204 37.3201 48.8868 40.4124C47.5533 43.5048 45.7434 46.1947 43.4572 48.4822C41.1711 50.7697 38.4828 52.5806 35.3922 53.915C32.3017 55.2494 28.9995 55.9166 25.4856 55.9166ZM25.4856 50.8332C31.1586 50.8332 35.9638 48.8635 39.901 44.9239C43.8383 40.9843 45.8069 36.1763 45.8069 30.4999C45.8069 24.8235 43.8383 20.0155 39.901 16.076C35.9638 12.1364 31.1586 10.1666 25.4856 10.1666C19.8126 10.1666 15.0074 12.1364 11.0702 16.076C7.13293 20.0155 5.16431 24.8235 5.16431 30.4999C5.16431 36.1763 7.13293 40.9843 11.0702 44.9239C15.0074 48.8635 19.8126 50.8332 25.4856 50.8332Z" fill="#F7F3D9"/>
<path d="M25.4856 55.9168C21.9717 55.9168 18.6695 55.2496 15.579 53.9153C12.4884 52.5809 9.8001 50.77 7.51396 48.4825C5.22781 46.195 3.41795 43.505 2.08436 40.4127C0.750777 37.3203 0.0839844 34.0161 0.0839844 30.5002C0.0839844 26.9842 0.750777 23.68 2.08436 20.5877C3.41795 17.4953 5.22781 14.8054 7.51396 12.5179C9.8001 10.2304 12.4884 8.41943 15.579 7.08506C18.6695 5.75068 21.9717 5.0835 25.4856 5.0835C28.9995 5.0835 32.3017 5.75068 35.3922 7.08506C38.4828 8.41943 41.1711 10.2304 43.4572 12.5179C45.7434 14.8054 47.5533 17.4953 48.8868 20.5877C50.2204 23.68 50.8872 26.9842 50.8872 30.5002C50.8872 34.0161 50.2204 37.3203 48.8868 40.4127C47.5533 43.505 45.7434 46.195 43.4572 48.4825C41.1711 50.77 38.4828 52.5809 35.3922 53.9153C32.3017 55.2496 28.9995 55.9168 25.4856 55.9168ZM25.4856 50.8335C31.1586 50.8335 35.9638 48.8637 39.901 44.9241C43.8383 40.9845 45.8069 36.1766 45.8069 30.5002C45.8069 24.8238 43.8383 20.0158 39.901 16.0762C35.9638 12.1366 31.1586 10.1668 25.4856 10.1668C19.8126 10.1668 15.0074 12.1366 11.0702 16.0762C7.13293 20.0158 5.16431 24.8238 5.16431 30.5002C5.16431 36.1766 7.13293 40.9845 11.0702 44.9241C15.0074 48.8637 19.8126 50.8335 25.4856 50.8335Z" fill="#E4C638"/>
</g>
</svg>
